<svg xmlns="http://www.w3.org/2000/svg" width="1440" height="1818" viewBox="0 0 1440 1818">
  <title>06-curso-detalhe-professor</title>
  <rect width="1440" height="1818" fill="#FFFFFF"/>
  <rect x="0" y="0" width="1440" height="40" fill="#0E2C4B"/>
  <text x="120" y="25" font-family="Arial, Helvetica, sans-serif" font-size="12" fill="#9FB6CB" font-weight="700" letter-spacing="1.2">CÂMARA MUNICIPAL DO RECIFE</text>
  <text x="1320" y="25" font-family="Arial, Helvetica, sans-serif" font-size="12" fill="#9FB6CB" text-anchor="end">Mapa do site</text>
  <text x="1218.4" y="25" font-family="Arial, Helvetica, sans-serif" font-size="12" fill="#9FB6CB" text-anchor="end">Alto contraste</text>
  <text x="1104.2" y="25" font-family="Arial, Helvetica, sans-serif" font-size="12" fill="#9FB6CB" text-anchor="end">Acessibilidade</text>
  <rect x="0" y="40" width="1440" height="88" fill="#FFFFFF"/>
  <line x1="0" y1="128" x2="1440" y2="128" stroke="#DBE3EC" stroke-width="1.5"/>
  <rect x="120" y="62" width="46" height="46" rx="8" fill="#0E2C4B"/>
  <g transform="translate(131,73) scale(1)">
  <path d="M3 4h18v13H3zM12 17v4M8 21h8M7 13V9M12 13V7M17 13v-2" fill="none" stroke="#B8862B" stroke-width="1.9" stroke-linecap="round" stroke-linejoin="round"/>
  </g>
  <text x="180" y="80" font-family="Arial, Helvetica, sans-serif" font-size="20" fill="#122231" font-weight="700">Escola do Legislativo</text>
  <text x="180" y="99" font-family="Arial, Helvetica, sans-serif" font-size="12.5" fill="#64778A">Câmara Municipal do Recife</text>
  <text x="430" y="90" font-family="Arial, Helvetica, sans-serif" font-size="14" fill="#2A3B4A">Home</text>
  <text x="487.4" y="90" font-family="Arial, Helvetica, sans-serif" font-size="14" fill="#122231" font-weight="700">Cursos e Eventos</text>
  <rect x="487.4" y="100" width="128.8" height="3" rx="2" fill="#B8862B"/>
  <text x="644.2" y="90" font-family="Arial, Helvetica, sans-serif" font-size="14" fill="#2A3B4A">A Escola</text>
  <text x="731" y="90" font-family="Arial, Helvetica, sans-serif" font-size="14" fill="#2A3B4A">Acervo</text>
  <text x="803.1" y="90" font-family="Arial, Helvetica, sans-serif" font-size="14" fill="#2A3B4A">Notícias</text>
  <text x="889.9" y="90" font-family="Arial, Helvetica, sans-serif" font-size="14" fill="#2A3B4A">Contato</text>
  <rect x="1280" y="68" width="40" height="40" rx="8" fill="#FFFFFF" stroke="#C2CEDA" stroke-width="1.3"/>
  <g transform="translate(1291,79) scale(0.75)">
  <path d="M11 4a7 7 0 1 0 0 14 7 7 0 0 0 0-14M16.5 16.5 21 21" fill="none" stroke="#2A3B4A" stroke-width="2.4" stroke-linecap="round" stroke-linejoin="round"/>
  </g>
  <rect x="1120" y="68" width="148" height="40" rx="6" fill="#1263A5" stroke="#0D4E85" stroke-width="1.5"/>
  <text x="1194" y="92.72" font-family="Arial, Helvetica, sans-serif" font-size="13.5" fill="#FFFFFF" font-weight="700" text-anchor="middle">Entrar / Cadastre-se</text>
  <rect x="0" y="128" width="1440" height="300" fill="#0E2C4B"/>
  <rect x="900" y="168" width="420" height="220" rx="10" fill="#1E4D75"/>
  <g transform="translate(1093,253) scale(1.42)">
  <path d="M3 5h18v14H3zM3 16l5-5 4 4 3-3 6 6" fill="none" stroke="#FFFFFF" stroke-width="1.41" stroke-linecap="round" stroke-linejoin="round"/>
  </g>
  <text x="1110" y="306.2" font-family="Arial, Helvetica, sans-serif" font-size="12" fill="#FFFFFF" font-weight="700" text-anchor="middle">IMAGEM DE CAPA DO CURSO</text>
  <text x="120" y="172" font-family="Arial, Helvetica, sans-serif" font-size="12.5" fill="#9FB6CB">Home</text>
  <g transform="translate(151.25,161) scale(0.5)">
  <path d="M9.5 5 16 12l-6.5 7" fill="none" stroke="#7D93A8" stroke-width="3.6" stroke-linecap="round" stroke-linejoin="round"/>
  </g>
  <text x="167.25" y="172" font-family="Arial, Helvetica, sans-serif" font-size="12.5" fill="#9FB6CB">Cursos e Eventos</text>
  <g transform="translate(277.25,161) scale(0.5)">
  <path d="M9.5 5 16 12l-6.5 7" fill="none" stroke="#7D93A8" stroke-width="3.6" stroke-linecap="round" stroke-linejoin="round"/>
  </g>
  <text x="293.25" y="172" font-family="Arial, Helvetica, sans-serif" font-size="12.5" fill="#FFFFFF" font-weight="700">Processo Legislativo Municipal</text>
  <rect x="120" y="194" width="162.2" height="26" rx="13" fill="#E3F3EC" stroke="#1B7A57" stroke-width="1"/>
  <circle cx="136" cy="207" r="3.5" fill="#1B7A57"/>
  <text x="146" y="211.32" font-family="Arial, Helvetica, sans-serif" font-size="12" fill="#1B7A57" font-weight="700">Inscrições abertas</text>
  <rect x="290.2" y="194" width="79.4" height="26" rx="13" fill="#1263A5" stroke="#1263A5" stroke-width="1"/>
  <circle cx="306.2" cy="207" r="3.5" fill="#FFFFFF"/>
  <text x="316.2" y="211.32" font-family="Arial, Helvetica, sans-serif" font-size="12" fill="#FFFFFF" font-weight="700">Online</text>
  <rect x="377.6" y="194" width="176" height="26" rx="13" fill="#0E2C4B" stroke="#0E2C4B" stroke-width="1"/>
  <circle cx="393.6" cy="207" r="3.5" fill="#FFFFFF"/>
  <text x="403.6" y="211.32" font-family="Arial, Helvetica, sans-serif" font-size="12" fill="#FFFFFF" font-weight="700">Processo Legislativo</text>
  <text x="120" y="264" font-family="Arial, Helvetica, sans-serif" font-size="36" fill="#FFFFFF" font-weight="700">Processo Legislativo Municipal</text>
  <text x="120" y="296" font-family="Arial, Helvetica, sans-serif" font-size="15.5" fill="#B7C7D6">Tramitação de proposições, comissões e técnica de votação na Câmara Municipal</text>
  <g transform="translate(120,340) scale(0.71)">
  <path d="M4 6h16v15H4zM4 10h16M8 3v5M16 3v5" fill="none" stroke="#B8862B" stroke-width="2.4" stroke-linecap="round" stroke-linejoin="round"/>
  </g>
  <text x="146" y="354" font-family="Arial, Helvetica, sans-serif" font-size="13.5" fill="#DCE7F0">14 e 15/09/2026</text>
  <g transform="translate(340,340) scale(0.71)">
  <path d="M12 3a9 9 0 1 0 0 18 9 9 0 0 0 0-18M12 7v5l3.5 2" fill="none" stroke="#B8862B" stroke-width="2.4" stroke-linecap="round" stroke-linejoin="round"/>
  </g>
  <text x="366" y="354" font-family="Arial, Helvetica, sans-serif" font-size="13.5" fill="#DCE7F0">19h às 22h · 8 horas</text>
  <g transform="translate(560,340) scale(0.71)">
  <path d="M12 21s7-6.3 7-11a7 7 0 1 0-14 0c0 4.7 7 11 7 11ZM12 12a2.5 2.5 0 1 0 0-5 2.5 2.5 0 0 0 0 5" fill="none" stroke="#B8862B" stroke-width="2.4" stroke-linecap="round" stroke-linejoin="round"/>
  </g>
  <text x="586" y="354" font-family="Arial, Helvetica, sans-serif" font-size="13.5" fill="#DCE7F0">Online · ao vivo</text>
  <g transform="translate(780,340) scale(0.71)">
  <path d="M9 12a3.5 3.5 0 1 0 0-7 3.5 3.5 0 0 0 0 7M2 20c1-3.4 3.6-5 7-5s6 1.6 7 5M16.5 6.2a3.5 3.5 0 0 1 0 6.6M18 15.4c2 .8 3.3 2.3 4 4.6" fill="none" stroke="#B8862B" stroke-width="2.4" stroke-linecap="round" stroke-linejoin="round"/>
  </g>
  <text x="806" y="354" font-family="Arial, Helvetica, sans-serif" font-size="13.5" fill="#DCE7F0">Interno e externo</text>
  <rect x="906" y="468" width="414" height="372" rx="12" fill="#FFFFFF" stroke="#DBE3EC" stroke-width="1.4"/>
  <rect x="906" y="468" width="414" height="6" rx="12" fill="#1B7A57"/>
  <rect x="906" y="471" width="414" height="3" fill="#1B7A57"/>
  <text x="930" y="512" font-family="Arial, Helvetica, sans-serif" font-size="18" fill="#1B7A57" font-weight="700">Inscrições abertas</text>
  <text x="930" y="534" font-family="Arial, Helvetica, sans-serif" font-size="12.5" fill="#64778A">Encerram em 10/09/2026 às 23h59</text>
  <text x="930" y="572" font-family="Arial, Helvetica, sans-serif" font-size="13" fill="#2A3B4A" font-weight="700">18 de 30 vagas preenchidas</text>
  <rect x="930" y="582" width="366" height="8" rx="4" fill="#E6ECF2"/>
  <rect x="930" y="582" width="219.6" height="8" rx="4" fill="#B0700A"/>
  <text x="930" y="610" font-family="Arial, Helvetica, sans-serif" font-size="12" fill="#B0700A" font-weight="700">12 vagas restantes</text>
  <rect x="930" y="630" width="366" height="52" rx="6" fill="#1263A5" stroke="#0D4E85" stroke-width="1.5"/>
  <text x="1113" y="661.6" font-family="Arial, Helvetica, sans-serif" font-size="16" fill="#FFFFFF" font-weight="700" text-anchor="middle">Inscrever-se neste curso</text>
  <rect x="927" y="627" width="372" height="58" rx="9" fill="none" stroke="#B8862B" stroke-width="1.5"/>
  <rect x="930" y="692" width="366" height="44" rx="6" fill="#EDF1F5" stroke="#DBE3EC" stroke-width="1.5"/>
  <text x="1113" y="718.9" font-family="Arial, Helvetica, sans-serif" font-size="14" fill="#95A5B4" font-weight="700" text-anchor="middle">Entrar na lista de espera</text>
  <text x="930" y="756" font-family="Arial, Helvetica, sans-serif" font-size="12.5" fill="#64778A">Gratuito · Certificado digital ao final</text>
  <line x1="930" y1="772" x2="1296" y2="772" stroke="#EDF1F6" stroke-width="1.2"/>
  <g transform="translate(930,792) scale(0.71)">
  <path d="M12 3 20 6v6c0 5-4 8-8 9-4-1-8-4-8-9V6zM8.5 12l2.5 2.5L16 9.5" fill="none" stroke="#1B7A57" stroke-width="2.4" stroke-linecap="round" stroke-linejoin="round"/>
  </g>
  <text x="956" y="806" font-family="Arial, Helvetica, sans-serif" font-size="12.5" fill="#64778A">Frequência mínima de 75% para certificado</text>
  <rect x="906" y="860" width="414" height="190" rx="12" fill="#FFFFFF" stroke="#DBE3EC" stroke-width="1.2"/>
  <text x="930" y="900" font-family="Arial, Helvetica, sans-serif" font-size="16" fill="#122231" font-weight="700">Acesso ao curso online</text>
  <g transform="translate(1272,886) scale(0.83)">
  <path d="M12 3a9 9 0 1 0 0 18 9 9 0 0 0 0-18M10 8.5l6 3.5-6 3.5z" fill="none" stroke="#1263A5" stroke-width="2.16" stroke-linecap="round" stroke-linejoin="round"/>
  </g>
  <rect x="930" y="918" width="366" height="62" rx="8" fill="#FCF0DA" stroke="#EBCE95" stroke-width="1.2"/>
  <g transform="translate(946,938) scale(0.75)">
  <path d="M6 11h12v9H6zM8.5 11V8a3.5 3.5 0 0 1 7 0v3" fill="none" stroke="#B0700A" stroke-width="2.4" stroke-linecap="round" stroke-linejoin="round"/>
  </g>
  <text x="972" y="944" font-family="Arial, Helvetica, sans-serif" font-size="12.5" fill="#B0700A">O link da transmissão será liberado nesta</text>
  <text x="972" y="961" font-family="Arial, Helvetica, sans-serif" font-size="12.5" fill="#B0700A">página após a confirmação da inscrição.</text>
  <text x="930" y="1006" font-family="Arial, Helvetica, sans-serif" font-size="12.5" fill="#64778A">Plataforma: ambiente do portal / transmissão</text>
  <text x="930" y="1024" font-family="Arial, Helvetica, sans-serif" font-size="12.5" fill="#64778A">externa (a definir em reunião)</text>
  <rect x="906" y="1070" width="414" height="176" rx="12" fill="#FFFFFF" stroke="#DBE3EC" stroke-width="1.2"/>
  <text x="930" y="1110" font-family="Arial, Helvetica, sans-serif" font-size="16" fill="#122231" font-weight="700">Compartilhar e apoio</text>
  <g transform="translate(930,1132) scale(0.71)">
  <path d="M10 14a4 4 0 0 0 6 .5l3-3a4 4 0 0 0-5.7-5.7L11.6 7.5M14 10a4 4 0 0 0-6-.5l-3 3a4 4 0 0 0 5.7 5.7L12.4 16.5" fill="none" stroke="#64778A" stroke-width="2.4" stroke-linecap="round" stroke-linejoin="round"/>
  </g>
  <text x="956" y="1146" font-family="Arial, Helvetica, sans-serif" font-size="12.5" fill="#0D4E85">Copiar link do curso</text>
  <g transform="translate(930,1166) scale(0.71)">
  <path d="M7 9V3h10v6M7 18H4V9h16v9h-3M7 14h10v7H7z" fill="none" stroke="#64778A" stroke-width="2.4" stroke-linecap="round" stroke-linejoin="round"/>
  </g>
  <text x="956" y="1180" font-family="Arial, Helvetica, sans-serif" font-size="12.5" fill="#0D4E85">Imprimir ficha do curso</text>
  <g transform="translate(930,1200) scale(0.71)">
  <path d="M3 6h18v13H3zM3 7l9 6 9-6" fill="none" stroke="#64778A" stroke-width="2.4" stroke-linecap="round" stroke-linejoin="round"/>
  </g>
  <text x="956" y="1214" font-family="Arial, Helvetica, sans-serif" font-size="12.5" fill="#64778A">Dúvidas: escoladolegislativo@recife.pe.leg.br</text>
  <text x="120" y="486" font-family="Arial, Helvetica, sans-serif" font-size="15" fill="#64778A">O que você vai aprender</text>
  <text x="331.12" y="486" font-family="Arial, Helvetica, sans-serif" font-size="15" fill="#122231" font-weight="700">Sobre o professor</text>
  <rect x="331.12" y="498" width="146.62" height="3.5" rx="2" fill="#B8862B"/>
  <text x="507.75" y="486" font-family="Arial, Helvetica, sans-serif" font-size="15" fill="#64778A">Cronograma e turmas</text>
  <text x="687.38" y="486" font-family="Arial, Helvetica, sans-serif" font-size="15" fill="#64778A">Materiais</text>
  <line x1="120" y1="500" x2="882" y2="500" stroke="#DBE3EC" stroke-width="1.5"/>
  <rect x="120" y="540" width="762" height="330" rx="12" fill="#FFFFFF" stroke="#DBE3EC" stroke-width="1.2"/>
  <text x="148" y="586" font-family="Arial, Helvetica, sans-serif" font-size="20" fill="#122231" font-weight="700">Sobre o professor / instrutor</text>
  <circle cx="194" cy="658" r="46" fill="#1E4D75"/>
  <text x="194" y="669.59" font-family="Arial, Helvetica, sans-serif" font-size="33.12" fill="#FFFFFF" font-weight="700" text-anchor="middle">HV</text>
  <text x="262" y="644" font-family="Arial, Helvetica, sans-serif" font-size="20" fill="#122231" font-weight="700">Dra. Helena Vasconcelos</text>
  <text x="262" y="668" font-family="Arial, Helvetica, sans-serif" font-size="13.5" fill="#0D4E85">Procuradora Legislativa · Mestre em Direito Público (UFPE)</text>
  <rect x="262" y="682" width="156.25" height="24" rx="12" fill="#E8F1F9" stroke="#A9CBE8" stroke-width="1"/>
  <text x="274" y="698.14" font-family="Arial, Helvetica, sans-serif" font-size="11.5" fill="#0D4E85" font-weight="700">Processo Legislativo</text>
  <rect x="426.25" y="682" width="70.29" height="24" rx="12" fill="#E8F1F9" stroke="#A9CBE8" stroke-width="1"/>
  <text x="438.25" y="698.14" font-family="Arial, Helvetica, sans-serif" font-size="11.5" fill="#0D4E85" font-weight="700">Direito</text>
  <rect x="504.54" y="682" width="149.64" height="24" rx="12" fill="#FAF1DD" stroke="#E7D2A4" stroke-width="1"/>
  <text x="516.54" y="698.14" font-family="Arial, Helvetica, sans-serif" font-size="11.5" fill="#8A6414" font-weight="700">12 turmas na Escola</text>
  <text x="148" y="748" font-family="Arial, Helvetica, sans-serif" font-size="14" fill="#64778A">Atua há 16 anos na Procuradoria da Câmara Municipal do Recife, com experiência em assessoramento</text>
  <text x="148" y="770" font-family="Arial, Helvetica, sans-serif" font-size="14" fill="#64778A">a comissões permanentes e elaboração de pareceres sobre admissibilidade de proposições. É autora</text>
  <text x="148" y="792" font-family="Arial, Helvetica, sans-serif" font-size="14" fill="#64778A">do Manual de Técnica Legislativa publicado no acervo da Escola e ministra cursos de formação</text>
  <text x="148" y="814" font-family="Arial, Helvetica, sans-serif" font-size="14" fill="#64778A">continuada para servidores desde 2018.</text>
  <rect x="120" y="894" width="762" height="198" rx="12" fill="#FFFFFF" stroke="#DBE3EC" stroke-width="1.2"/>
  <text x="148" y="938" font-family="Arial, Helvetica, sans-serif" font-size="20" fill="#122231" font-weight="700">Outros cursos deste professor</text>
  <rect x="148" y="968" width="706" height="50" rx="8" fill="#F7FAFC" stroke="#DBE3EC" stroke-width="1"/>
  <g transform="translate(164,983) scale(0.79)">
  <path d="M4 4h7a3 3 0 0 1 3 3v13a3 3 0 0 0-3-3H4zM20 4h-6M20 4v13h-3" fill="none" stroke="#1263A5" stroke-width="2.15" stroke-linecap="round" stroke-linejoin="round"/>
  </g>
  <text x="194" y="990" font-family="Arial, Helvetica, sans-serif" font-size="14" fill="#122231" font-weight="700">Introdução ao Direito Municipal</text>
  <text x="194" y="1008" font-family="Arial, Helvetica, sans-serif" font-size="12" fill="#64778A">Realizado em 03/2026 · 15h</text>
  <g transform="translate(826,984) scale(0.67)">
  <path d="M9.5 5 16 12l-6.5 7" fill="none" stroke="#95A5B4" stroke-width="2.7" stroke-linecap="round" stroke-linejoin="round"/>
  </g>
  <rect x="148" y="1026" width="706" height="50" rx="8" fill="#F7FAFC" stroke="#DBE3EC" stroke-width="1"/>
  <g transform="translate(164,1041) scale(0.79)">
  <path d="M4 4h7a3 3 0 0 1 3 3v13a3 3 0 0 0-3-3H4zM20 4h-6M20 4v13h-3" fill="none" stroke="#1263A5" stroke-width="2.15" stroke-linecap="round" stroke-linejoin="round"/>
  </g>
  <text x="194" y="1048" font-family="Arial, Helvetica, sans-serif" font-size="14" fill="#122231" font-weight="700">Técnica de Redação de Proposições</text>
  <text x="194" y="1066" font-family="Arial, Helvetica, sans-serif" font-size="12" fill="#64778A">Realizado em 11/2025 · 8h</text>
  <g transform="translate(826,1042) scale(0.67)">
  <path d="M9.5 5 16 12l-6.5 7" fill="none" stroke="#95A5B4" stroke-width="2.7" stroke-linecap="round" stroke-linejoin="round"/>
  </g>
  <rect x="0" y="1326" width="1440" height="330" fill="#0E2C4B"/>
  <rect x="0" y="1326" width="1440" height="4" fill="#B8862B"/>
  <text x="120" y="1388" font-family="Arial, Helvetica, sans-serif" font-size="15" fill="#FFFFFF" font-weight="700">Escola do Legislativo</text>
  <rect x="120" y="1400" width="28" height="3" rx="2" fill="#B8862B"/>
  <text x="120" y="1432" font-family="Arial, Helvetica, sans-serif" font-size="13" fill="#B7C7D6">Rua Princesa Isabel, 410 - 1o Andar</text>
  <text x="120" y="1458" font-family="Arial, Helvetica, sans-serif" font-size="13" fill="#B7C7D6">Boa Vista - Recife/PE - CEP 50050-330</text>
  <text x="120" y="1484" font-family="Arial, Helvetica, sans-serif" font-size="13" fill="#B7C7D6">(81) 3355-4000 | ramal 4120</text>
  <text x="120" y="1510" font-family="Arial, Helvetica, sans-serif" font-size="13" fill="#B7C7D6">escoladolegislativo@recife.pe.leg.br</text>
  <text x="120" y="1536" font-family="Arial, Helvetica, sans-serif" font-size="13" fill="#B7C7D6">Atendimento: seg a sex, 8h as 17h</text>
  <text x="390" y="1388" font-family="Arial, Helvetica, sans-serif" font-size="15" fill="#FFFFFF" font-weight="700">Institucional</text>
  <rect x="390" y="1400" width="28" height="3" rx="2" fill="#B8862B"/>
  <text x="390" y="1432" font-family="Arial, Helvetica, sans-serif" font-size="13" fill="#B7C7D6">Quem Somos</text>
  <text x="390" y="1458" font-family="Arial, Helvetica, sans-serif" font-size="13" fill="#B7C7D6">História e composição</text>
  <text x="390" y="1484" font-family="Arial, Helvetica, sans-serif" font-size="13" fill="#B7C7D6">Legislação e Transparência</text>
  <text x="390" y="1510" font-family="Arial, Helvetica, sans-serif" font-size="13" fill="#B7C7D6">Instrumentos jurídicos</text>
  <text x="390" y="1536" font-family="Arial, Helvetica, sans-serif" font-size="13" fill="#B7C7D6">Escolas parceiras</text>
  <text x="660" y="1388" font-family="Arial, Helvetica, sans-serif" font-size="15" fill="#FFFFFF" font-weight="700">Serviços</text>
  <rect x="660" y="1400" width="28" height="3" rx="2" fill="#B8862B"/>
  <text x="660" y="1432" font-family="Arial, Helvetica, sans-serif" font-size="13" fill="#B7C7D6">Cursos e eventos</text>
  <text x="660" y="1458" font-family="Arial, Helvetica, sans-serif" font-size="13" fill="#B7C7D6">Área do Aluno</text>
  <text x="660" y="1484" font-family="Arial, Helvetica, sans-serif" font-size="13" fill="#B7C7D6">Validar certificado</text>
  <text x="660" y="1510" font-family="Arial, Helvetica, sans-serif" font-size="13" fill="#B7C7D6">Acervo / Biblioteca</text>
  <text x="660" y="1536" font-family="Arial, Helvetica, sans-serif" font-size="13" fill="#B7C7D6">Notícias</text>
  <text x="930" y="1388" font-family="Arial, Helvetica, sans-serif" font-size="15" fill="#FFFFFF" font-weight="700">Escolas parceiras</text>
  <rect x="930" y="1400" width="28" height="3" rx="2" fill="#B8862B"/>
  <text x="930" y="1432" font-family="Arial, Helvetica, sans-serif" font-size="13" fill="#B7C7D6">ALMG - Minas Gerais</text>
  <g transform="translate(1067.67,1420) scale(0.54)">
  <path d="M10 14a4 4 0 0 0 6 .5l3-3a4 4 0 0 0-5.7-5.7L11.6 7.5M14 10a4 4 0 0 0-6-.5l-3 3a4 4 0 0 0 5.7 5.7L12.4 16.5" fill="none" stroke="#7D93A8" stroke-width="3.14" stroke-linecap="round" stroke-linejoin="round"/>
  </g>
  <text x="930" y="1458" font-family="Arial, Helvetica, sans-serif" font-size="13" fill="#B7C7D6">ALEP - Paraná</text>
  <g transform="translate(1026.72,1446) scale(0.54)">
  <path d="M10 14a4 4 0 0 0 6 .5l3-3a4 4 0 0 0-5.7-5.7L11.6 7.5M14 10a4 4 0 0 0-6-.5l-3 3a4 4 0 0 0 5.7 5.7L12.4 16.5" fill="none" stroke="#7D93A8" stroke-width="3.14" stroke-linecap="round" stroke-linejoin="round"/>
  </g>
  <text x="930" y="1484" font-family="Arial, Helvetica, sans-serif" font-size="13" fill="#B7C7D6">Interlegis / ILB</text>
  <g transform="translate(1047.2,1472) scale(0.54)">
  <path d="M10 14a4 4 0 0 0 6 .5l3-3a4 4 0 0 0-5.7-5.7L11.6 7.5M14 10a4 4 0 0 0-6-.5l-3 3a4 4 0 0 0 5.7 5.7L12.4 16.5" fill="none" stroke="#7D93A8" stroke-width="3.14" stroke-linecap="round" stroke-linejoin="round"/>
  </g>
  <text x="930" y="1510" font-family="Arial, Helvetica, sans-serif" font-size="13" fill="#B7C7D6">ABEL - Associação Brasileira</text>
  <g transform="translate(1129.1,1498) scale(0.54)">
  <path d="M10 14a4 4 0 0 0 6 .5l3-3a4 4 0 0 0-5.7-5.7L11.6 7.5M14 10a4 4 0 0 0-6-.5l-3 3a4 4 0 0 0 5.7 5.7L12.4 16.5" fill="none" stroke="#7D93A8" stroke-width="3.14" stroke-linecap="round" stroke-linejoin="round"/>
  </g>
  <text x="930" y="1536" font-family="Arial, Helvetica, sans-serif" font-size="13" fill="#B7C7D6">Ver todas as parceiras</text>
  <g transform="translate(1088.15,1524) scale(0.54)">
  <path d="M10 14a4 4 0 0 0 6 .5l3-3a4 4 0 0 0-5.7-5.7L11.6 7.5M14 10a4 4 0 0 0-6-.5l-3 3a4 4 0 0 0 5.7 5.7L12.4 16.5" fill="none" stroke="#7D93A8" stroke-width="3.14" stroke-linecap="round" stroke-linejoin="round"/>
  </g>
  <line x1="120" y1="1590" x2="1320" y2="1590" stroke="#2A4A6B" stroke-width="1.2"/>
  <text x="120" y="1622" font-family="Arial, Helvetica, sans-serif" font-size="12.5" fill="#8FA6BA">© 2026 Câmara Municipal do Recife - Divisão de Informática</text>
  <text x="1320" y="1622" font-family="Arial, Helvetica, sans-serif" font-size="12.5" fill="#8FA6BA" text-anchor="end">Política de Privacidade  |  LGPD  |  Termos de uso</text>
  <g id="NOTA-ANALISE">
  <rect x="0" y="1656" width="1440" height="162" fill="#101E2B"/>
  <rect x="0" y="1656" width="1440" height="3" fill="#B8862B"/>
  <text x="120" y="1692" font-family="Arial, Helvetica, sans-serif" font-size="11" fill="#B8862B" font-weight="700" letter-spacing="1.6">NOTA DE ANÁLISE - NÃO FAZ PARTE DA INTERFACE</text>
  <text x="120" y="1696" font-family="Arial, Helvetica, sans-serif" font-size="11" fill="#2A3B4A"></text>
  <text x="120" y="1724" font-family="Arial, Helvetica, sans-serif" font-size="12.5" fill="#8FA6BA" font-weight="700">Requisitos atendidos nesta tela</text>
  <rect x="360" y="1711" width="49.6" height="22" rx="4" fill="#1D3448" stroke="#2F5171" stroke-width="1"/>
  <text x="384.8" y="1726.2" font-family="Arial, Helvetica, sans-serif" font-size="12" fill="#CFE0EE" font-weight="700" text-anchor="middle">RF 2</text>
  <rect x="417.6" y="1711" width="56.5" height="22" rx="4" fill="#1D3448" stroke="#2F5171" stroke-width="1"/>
  <text x="445.85" y="1726.2" font-family="Arial, Helvetica, sans-serif" font-size="12" fill="#CFE0EE" font-weight="700" text-anchor="middle">RF 16</text>
  <text x="120" y="1756" font-family="Arial, Helvetica, sans-serif" font-size="12.5" fill="#8FA6BA" font-weight="700">Observação</text>
  <text x="120" y="1776" font-family="Arial, Helvetica, sans-serif" font-size="13.5" fill="#9FB6CB">Aba 'Sobre o Professor/Instrutor' com biografia resumida, exigida no RF 2. Os dados vêm do cadastro de professores mantido pelo gestor (RF 16).</text>
  </g>
</svg>
