<svg xmlns="http://www.w3.org/2000/svg" width="1440" height="1956" viewBox="0 0 1440 1956">
  <title>11-escola-historia</title>
  <rect width="1440" height="1956" fill="#FFFFFF"/>
  <rect x="0" y="0" width="1440" height="40" fill="#0E2C4B"/>
  <text x="120" y="25" font-family="Arial, Helvetica, sans-serif" font-size="12" fill="#9FB6CB" font-weight="700" letter-spacing="1.2">CÂMARA MUNICIPAL DO RECIFE</text>
  <text x="1320" y="25" font-family="Arial, Helvetica, sans-serif" font-size="12" fill="#9FB6CB" text-anchor="end">Mapa do site</text>
  <text x="1218.4" y="25" font-family="Arial, Helvetica, sans-serif" font-size="12" fill="#9FB6CB" text-anchor="end">Alto contraste</text>
  <text x="1104.2" y="25" font-family="Arial, Helvetica, sans-serif" font-size="12" fill="#9FB6CB" text-anchor="end">Acessibilidade</text>
  <rect x="0" y="40" width="1440" height="88" fill="#FFFFFF"/>
  <line x1="0" y1="128" x2="1440" y2="128" stroke="#DBE3EC" stroke-width="1.5"/>
  <rect x="120" y="62" width="46" height="46" rx="8" fill="#0E2C4B"/>
  <g transform="translate(131,73) scale(1)">
  <path d="M3 4h18v13H3zM12 17v4M8 21h8M7 13V9M12 13V7M17 13v-2" fill="none" stroke="#B8862B" stroke-width="1.9" stroke-linecap="round" stroke-linejoin="round"/>
  </g>
  <text x="180" y="80" font-family="Arial, Helvetica, sans-serif" font-size="20" fill="#122231" font-weight="700">Escola do Legislativo</text>
  <text x="180" y="99" font-family="Arial, Helvetica, sans-serif" font-size="12.5" fill="#64778A">Câmara Municipal do Recife</text>
  <text x="430" y="90" font-family="Arial, Helvetica, sans-serif" font-size="14" fill="#2A3B4A">Home</text>
  <text x="487.4" y="90" font-family="Arial, Helvetica, sans-serif" font-size="14" fill="#2A3B4A">Cursos e Eventos</text>
  <text x="633" y="90" font-family="Arial, Helvetica, sans-serif" font-size="14" fill="#122231" font-weight="700">A Escola</text>
  <rect x="633" y="100" width="64.4" height="3" rx="2" fill="#B8862B"/>
  <text x="725.4" y="90" font-family="Arial, Helvetica, sans-serif" font-size="14" fill="#2A3B4A">Acervo</text>
  <text x="797.5" y="90" font-family="Arial, Helvetica, sans-serif" font-size="14" fill="#2A3B4A">Notícias</text>
  <text x="884.3" y="90" font-family="Arial, Helvetica, sans-serif" font-size="14" fill="#2A3B4A">Contato</text>
  <rect x="1280" y="68" width="40" height="40" rx="8" fill="#FFFFFF" stroke="#C2CEDA" stroke-width="1.3"/>
  <g transform="translate(1291,79) scale(0.75)">
  <path d="M11 4a7 7 0 1 0 0 14 7 7 0 0 0 0-14M16.5 16.5 21 21" fill="none" stroke="#2A3B4A" stroke-width="2.4" stroke-linecap="round" stroke-linejoin="round"/>
  </g>
  <rect x="1120" y="68" width="148" height="40" rx="6" fill="#1263A5" stroke="#0D4E85" stroke-width="1.5"/>
  <text x="1194" y="92.72" font-family="Arial, Helvetica, sans-serif" font-size="13.5" fill="#FFFFFF" font-weight="700" text-anchor="middle">Entrar / Cadastre-se</text>
  <rect x="0" y="128" width="1440" height="176" fill="#0E2C4B"/>
  <text x="120" y="172" font-family="Arial, Helvetica, sans-serif" font-size="12.5" fill="#9FB6CB">Home</text>
  <g transform="translate(151.25,161) scale(0.5)">
  <path d="M9.5 5 16 12l-6.5 7" fill="none" stroke="#7D93A8" stroke-width="3.6" stroke-linecap="round" stroke-linejoin="round"/>
  </g>
  <text x="167.25" y="172" font-family="Arial, Helvetica, sans-serif" font-size="12.5" fill="#9FB6CB">A Escola</text>
  <g transform="translate(224.75,161) scale(0.5)">
  <path d="M9.5 5 16 12l-6.5 7" fill="none" stroke="#7D93A8" stroke-width="3.6" stroke-linecap="round" stroke-linejoin="round"/>
  </g>
  <text x="240.75" y="172" font-family="Arial, Helvetica, sans-serif" font-size="12.5" fill="#FFFFFF" font-weight="700">História</text>
  <text x="120" y="220" font-family="Arial, Helvetica, sans-serif" font-size="34" fill="#FFFFFF" font-weight="700">História</text>
  <text x="120" y="250" font-family="Arial, Helvetica, sans-serif" font-size="15.5" fill="#B7C7D6">A trajetória da Escola do Legislativo da Câmara Municipal do Recife</text>
  <text x="120" y="348" font-family="Arial, Helvetica, sans-serif" font-size="15" fill="#64778A">Quem Somos</text>
  <text x="232.75" y="348" font-family="Arial, Helvetica, sans-serif" font-size="15" fill="#122231" font-weight="700">História</text>
  <rect x="232.75" y="360" width="69" height="3.5" rx="2" fill="#B8862B"/>
  <text x="335.75" y="348" font-family="Arial, Helvetica, sans-serif" font-size="15" fill="#64778A">Legislação e Transparência</text>
  <text x="574.5" y="348" font-family="Arial, Helvetica, sans-serif" font-size="15" fill="#64778A">Escolas parceiras</text>
  <line x1="120" y1="362" x2="1320" y2="362" stroke="#DBE3EC" stroke-width="1.5"/>
  <rect x="120" y="406" width="762" height="726" rx="12" fill="#FFFFFF" stroke="#DBE3EC" stroke-width="1.2"/>
  <text x="152" y="458" font-family="Arial, Helvetica, sans-serif" font-size="24" fill="#122231" font-weight="700">Linha do tempo</text>
  <rect x="152" y="470" width="46" height="4" rx="2" fill="#B8862B"/>
  <circle cx="161" cy="516" r="9" fill="#FFFFFF" stroke="#1263A5" stroke-width="3"/>
  <line x1="161" y1="528" x2="161" y2="624" stroke="#C2CEDA" stroke-width="2"/>
  <text x="192" y="514" font-family="Arial, Helvetica, sans-serif" font-size="20" fill="#0D4E85" font-weight="700">2019</text>
  <text x="262" y="514" font-family="Arial, Helvetica, sans-serif" font-size="17" fill="#122231" font-weight="700">Primeiras capacitações internas</text>
  <text x="192" y="540" font-family="Arial, Helvetica, sans-serif" font-size="13.5" fill="#64778A">A Câmara passa a promover cursos pontuais de técnica legislativa para servidores efetivos.</text>
  <circle cx="161" cy="632" r="9" fill="#FFFFFF" stroke="#1263A5" stroke-width="3"/>
  <line x1="161" y1="644" x2="161" y2="740" stroke="#C2CEDA" stroke-width="2"/>
  <text x="192" y="630" font-family="Arial, Helvetica, sans-serif" font-size="20" fill="#0D4E85" font-weight="700">2022</text>
  <text x="262" y="630" font-family="Arial, Helvetica, sans-serif" font-size="17" fill="#122231" font-weight="700">Programa de Educação Continuada</text>
  <text x="192" y="656" font-family="Arial, Helvetica, sans-serif" font-size="13.5" fill="#64778A">Criação do programa permanente de capacitação, com calendário semestral e controle manual</text>
  <text x="192" y="676" font-family="Arial, Helvetica, sans-serif" font-size="13.5" fill="#64778A">de inscrições.</text>
  <circle cx="161" cy="748" r="9" fill="#FFFFFF" stroke="#1263A5" stroke-width="3"/>
  <line x1="161" y1="760" x2="161" y2="856" stroke="#C2CEDA" stroke-width="2"/>
  <text x="192" y="746" font-family="Arial, Helvetica, sans-serif" font-size="20" fill="#0D4E85" font-weight="700">2024</text>
  <text x="262" y="746" font-family="Arial, Helvetica, sans-serif" font-size="17" fill="#122231" font-weight="700">Criação formal da Escola</text>
  <text x="192" y="772" font-family="Arial, Helvetica, sans-serif" font-size="13.5" fill="#64778A">A Resolução nº 1.842/2024 institui a Escola do Legislativo como unidade da estrutura da</text>
  <text x="192" y="792" font-family="Arial, Helvetica, sans-serif" font-size="13.5" fill="#64778A">CMR.</text>
  <circle cx="161" cy="864" r="9" fill="#FFFFFF" stroke="#1263A5" stroke-width="3"/>
  <line x1="161" y1="876" x2="161" y2="972" stroke="#C2CEDA" stroke-width="2"/>
  <text x="192" y="862" font-family="Arial, Helvetica, sans-serif" font-size="20" fill="#0D4E85" font-weight="700">2025</text>
  <text x="262" y="862" font-family="Arial, Helvetica, sans-serif" font-size="17" fill="#122231" font-weight="700">Abertura ao público externo</text>
  <text x="192" y="888" font-family="Arial, Helvetica, sans-serif" font-size="13.5" fill="#64778A">Cursos passam a aceitar servidores de outros órgãos e cidadãos, ampliando o alcance da</text>
  <text x="192" y="908" font-family="Arial, Helvetica, sans-serif" font-size="13.5" fill="#64778A">Escola.</text>
  <circle cx="161" cy="980" r="9" fill="#FFFFFF" stroke="#1263A5" stroke-width="3"/>
  <text x="192" y="978" font-family="Arial, Helvetica, sans-serif" font-size="20" fill="#0D4E85" font-weight="700">2026</text>
  <text x="262" y="978" font-family="Arial, Helvetica, sans-serif" font-size="17" fill="#122231" font-weight="700">Portal digital da Escola</text>
  <text x="192" y="1004" font-family="Arial, Helvetica, sans-serif" font-size="13.5" fill="#64778A">Processo nº 3096/2025 dá origem ao portal com inscrições on-line, certificação digital e</text>
  <text x="192" y="1024" font-family="Arial, Helvetica, sans-serif" font-size="13.5" fill="#64778A">acervo.</text>
  <rect x="120" y="1156" width="762" height="232" rx="12" fill="#E8F1F9" stroke="#A9CBE8" stroke-width="1.2"/>
  <g transform="translate(152,1188) scale(0.92)">
  <path d="M12 3a9 9 0 1 0 0 18 9 9 0 0 0 0-18M12 11v6M12 7.5h.01" fill="none" stroke="#0D4E85" stroke-width="1.96" stroke-linecap="round" stroke-linejoin="round"/>
  </g>
  <text x="186" y="1206" font-family="Arial, Helvetica, sans-serif" font-size="18" fill="#0D4E85" font-weight="700">O portal que você está vendo</text>
  <text x="152" y="1244" font-family="Arial, Helvetica, sans-serif" font-size="14" fill="#2A3B4A">Este portal nasce da solicitação encaminhada pelo Diretor Ricardo Ferraz no processo nº</text>
  <text x="152" y="1266" font-family="Arial, Helvetica, sans-serif" font-size="14" fill="#2A3B4A">3096/2025, com as necessidades de negócio reportadas por Robertson Barros: divulgar a agenda</text>
  <text x="152" y="1288" font-family="Arial, Helvetica, sans-serif" font-size="14" fill="#2A3B4A">de cursos e eventos, receber inscrições, divulgar escolas parceiras e publicar notícias e</text>
  <text x="152" y="1310" font-family="Arial, Helvetica, sans-serif" font-size="14" fill="#2A3B4A">instrumentos jurídicos formalizados.</text>
  <rect x="906" y="406" width="414" height="260" rx="12" fill="#E2DDEB"/>
  <g transform="translate(1096,511) scale(1.42)">
  <path d="M3 5h18v14H3zM3 16l5-5 4 4 3-3 6 6" fill="none" stroke="#FFFFFF" stroke-width="1.41" stroke-linecap="round" stroke-linejoin="round"/>
  </g>
  <text x="1113" y="564.2" font-family="Arial, Helvetica, sans-serif" font-size="12" fill="#FFFFFF" font-weight="700" text-anchor="middle">ACERVO FOTOGRÁFICO</text>
  <rect x="906" y="686" width="414" height="300" rx="12" fill="#FFFFFF" stroke="#DBE3EC" stroke-width="1.2"/>
  <text x="932" y="732" font-family="Arial, Helvetica, sans-serif" font-size="17" fill="#122231" font-weight="700">Marcos institucionais</text>
  <rect x="932" y="756" width="8" height="8" rx="4" fill="#B8862B"/>
  <text x="952" y="764" font-family="Arial, Helvetica, sans-serif" font-size="13" fill="#122231" font-weight="700">Res. 1.842/2024</text>
  <text x="952" y="782" font-family="Arial, Helvetica, sans-serif" font-size="12" fill="#64778A">Cria a Escola do Legislativo</text>
  <rect x="932" y="812" width="8" height="8" rx="4" fill="#B8862B"/>
  <text x="952" y="820" font-family="Arial, Helvetica, sans-serif" font-size="13" fill="#122231" font-weight="700">Portaria 77/2024</text>
  <text x="952" y="838" font-family="Arial, Helvetica, sans-serif" font-size="12" fill="#64778A">Designa a coordenação</text>
  <rect x="932" y="868" width="8" height="8" rx="4" fill="#B8862B"/>
  <text x="952" y="876" font-family="Arial, Helvetica, sans-serif" font-size="13" fill="#122231" font-weight="700">Res. 1.910/2025</text>
  <text x="952" y="894" font-family="Arial, Helvetica, sans-serif" font-size="12" fill="#64778A">Aprova o Regimento Interno</text>
  <rect x="932" y="924" width="8" height="8" rx="4" fill="#B8862B"/>
  <text x="952" y="932" font-family="Arial, Helvetica, sans-serif" font-size="13" fill="#122231" font-weight="700">Proc. 3096/2025</text>
  <text x="952" y="950" font-family="Arial, Helvetica, sans-serif" font-size="12" fill="#64778A">Autoriza o portal digital</text>
  <rect x="0" y="1464" width="1440" height="330" fill="#0E2C4B"/>
  <rect x="0" y="1464" width="1440" height="4" fill="#B8862B"/>
  <text x="120" y="1526" font-family="Arial, Helvetica, sans-serif" font-size="15" fill="#FFFFFF" font-weight="700">Escola do Legislativo</text>
  <rect x="120" y="1538" width="28" height="3" rx="2" fill="#B8862B"/>
  <text x="120" y="1570" font-family="Arial, Helvetica, sans-serif" font-size="13" fill="#B7C7D6">Rua Princesa Isabel, 410 - 1o Andar</text>
  <text x="120" y="1596" font-family="Arial, Helvetica, sans-serif" font-size="13" fill="#B7C7D6">Boa Vista - Recife/PE - CEP 50050-330</text>
  <text x="120" y="1622" font-family="Arial, Helvetica, sans-serif" font-size="13" fill="#B7C7D6">(81) 3355-4000 | ramal 4120</text>
  <text x="120" y="1648" font-family="Arial, Helvetica, sans-serif" font-size="13" fill="#B7C7D6">escoladolegislativo@recife.pe.leg.br</text>
  <text x="120" y="1674" font-family="Arial, Helvetica, sans-serif" font-size="13" fill="#B7C7D6">Atendimento: seg a sex, 8h as 17h</text>
  <text x="390" y="1526" font-family="Arial, Helvetica, sans-serif" font-size="15" fill="#FFFFFF" font-weight="700">Institucional</text>
  <rect x="390" y="1538" width="28" height="3" rx="2" fill="#B8862B"/>
  <text x="390" y="1570" font-family="Arial, Helvetica, sans-serif" font-size="13" fill="#B7C7D6">Quem Somos</text>
  <text x="390" y="1596" font-family="Arial, Helvetica, sans-serif" font-size="13" fill="#B7C7D6">História e composição</text>
  <text x="390" y="1622" font-family="Arial, Helvetica, sans-serif" font-size="13" fill="#B7C7D6">Legislação e Transparência</text>
  <text x="390" y="1648" font-family="Arial, Helvetica, sans-serif" font-size="13" fill="#B7C7D6">Instrumentos jurídicos</text>
  <text x="390" y="1674" font-family="Arial, Helvetica, sans-serif" font-size="13" fill="#B7C7D6">Escolas parceiras</text>
  <text x="660" y="1526" font-family="Arial, Helvetica, sans-serif" font-size="15" fill="#FFFFFF" font-weight="700">Serviços</text>
  <rect x="660" y="1538" width="28" height="3" rx="2" fill="#B8862B"/>
  <text x="660" y="1570" font-family="Arial, Helvetica, sans-serif" font-size="13" fill="#B7C7D6">Cursos e eventos</text>
  <text x="660" y="1596" font-family="Arial, Helvetica, sans-serif" font-size="13" fill="#B7C7D6">Área do Aluno</text>
  <text x="660" y="1622" font-family="Arial, Helvetica, sans-serif" font-size="13" fill="#B7C7D6">Validar certificado</text>
  <text x="660" y="1648" font-family="Arial, Helvetica, sans-serif" font-size="13" fill="#B7C7D6">Acervo / Biblioteca</text>
  <text x="660" y="1674" font-family="Arial, Helvetica, sans-serif" font-size="13" fill="#B7C7D6">Notícias</text>
  <text x="930" y="1526" font-family="Arial, Helvetica, sans-serif" font-size="15" fill="#FFFFFF" font-weight="700">Escolas parceiras</text>
  <rect x="930" y="1538" width="28" height="3" rx="2" fill="#B8862B"/>
  <text x="930" y="1570" font-family="Arial, Helvetica, sans-serif" font-size="13" fill="#B7C7D6">ALMG - Minas Gerais</text>
  <g transform="translate(1067.67,1558) scale(0.54)">
  <path d="M10 14a4 4 0 0 0 6 .5l3-3a4 4 0 0 0-5.7-5.7L11.6 7.5M14 10a4 4 0 0 0-6-.5l-3 3a4 4 0 0 0 5.7 5.7L12.4 16.5" fill="none" stroke="#7D93A8" stroke-width="3.14" stroke-linecap="round" stroke-linejoin="round"/>
  </g>
  <text x="930" y="1596" font-family="Arial, Helvetica, sans-serif" font-size="13" fill="#B7C7D6">ALEP - Paraná</text>
  <g transform="translate(1026.72,1584) scale(0.54)">
  <path d="M10 14a4 4 0 0 0 6 .5l3-3a4 4 0 0 0-5.7-5.7L11.6 7.5M14 10a4 4 0 0 0-6-.5l-3 3a4 4 0 0 0 5.7 5.7L12.4 16.5" fill="none" stroke="#7D93A8" stroke-width="3.14" stroke-linecap="round" stroke-linejoin="round"/>
  </g>
  <text x="930" y="1622" font-family="Arial, Helvetica, sans-serif" font-size="13" fill="#B7C7D6">Interlegis / ILB</text>
  <g transform="translate(1047.2,1610) scale(0.54)">
  <path d="M10 14a4 4 0 0 0 6 .5l3-3a4 4 0 0 0-5.7-5.7L11.6 7.5M14 10a4 4 0 0 0-6-.5l-3 3a4 4 0 0 0 5.7 5.7L12.4 16.5" fill="none" stroke="#7D93A8" stroke-width="3.14" stroke-linecap="round" stroke-linejoin="round"/>
  </g>
  <text x="930" y="1648" font-family="Arial, Helvetica, sans-serif" font-size="13" fill="#B7C7D6">ABEL - Associação Brasileira</text>
  <g transform="translate(1129.1,1636) scale(0.54)">
  <path d="M10 14a4 4 0 0 0 6 .5l3-3a4 4 0 0 0-5.7-5.7L11.6 7.5M14 10a4 4 0 0 0-6-.5l-3 3a4 4 0 0 0 5.7 5.7L12.4 16.5" fill="none" stroke="#7D93A8" stroke-width="3.14" stroke-linecap="round" stroke-linejoin="round"/>
  </g>
  <text x="930" y="1674" font-family="Arial, Helvetica, sans-serif" font-size="13" fill="#B7C7D6">Ver todas as parceiras</text>
  <g transform="translate(1088.15,1662) scale(0.54)">
  <path d="M10 14a4 4 0 0 0 6 .5l3-3a4 4 0 0 0-5.7-5.7L11.6 7.5M14 10a4 4 0 0 0-6-.5l-3 3a4 4 0 0 0 5.7 5.7L12.4 16.5" fill="none" stroke="#7D93A8" stroke-width="3.14" stroke-linecap="round" stroke-linejoin="round"/>
  </g>
  <line x1="120" y1="1728" x2="1320" y2="1728" stroke="#2A4A6B" stroke-width="1.2"/>
  <text x="120" y="1760" font-family="Arial, Helvetica, sans-serif" font-size="12.5" fill="#8FA6BA">© 2026 Câmara Municipal do Recife - Divisão de Informática</text>
  <text x="1320" y="1760" font-family="Arial, Helvetica, sans-serif" font-size="12.5" fill="#8FA6BA" text-anchor="end">Política de Privacidade  |  LGPD  |  Termos de uso</text>
  <g id="NOTA-ANALISE">
  <rect x="0" y="1794" width="1440" height="162" fill="#101E2B"/>
  <rect x="0" y="1794" width="1440" height="3" fill="#B8862B"/>
  <text x="120" y="1830" font-family="Arial, Helvetica, sans-serif" font-size="11" fill="#B8862B" font-weight="700" letter-spacing="1.6">NOTA DE ANÁLISE - NÃO FAZ PARTE DA INTERFACE</text>
  <text x="120" y="1834" font-family="Arial, Helvetica, sans-serif" font-size="11" fill="#2A3B4A"></text>
  <text x="120" y="1862" font-family="Arial, Helvetica, sans-serif" font-size="12.5" fill="#8FA6BA" font-weight="700">Requisitos atendidos nesta tela</text>
  <rect x="360" y="1849" width="153.1" height="22" rx="4" fill="#1D3448" stroke="#2F5171" stroke-width="1"/>
  <text x="436.55" y="1864.2" font-family="Arial, Helvetica, sans-serif" font-size="12" fill="#CFE0EE" font-weight="700" text-anchor="middle">A ESCOLA - História</text>
  <text x="120" y="1894" font-family="Arial, Helvetica, sans-serif" font-size="12.5" fill="#8FA6BA" font-weight="700">Observação</text>
  <text x="120" y="1914" font-family="Arial, Helvetica, sans-serif" font-size="13.5" fill="#9FB6CB">Item 'História' da estrutura do portal (seção 2 do documento).</text>
  </g>
</svg>
