<svg xmlns="http://www.w3.org/2000/svg" width="1440" height="1430" viewBox="0 0 1440 1430">
  <title>25-cadastro-confirmacao</title>
  <rect width="1440" height="1430" fill="#FFFFFF"/>
  <rect x="0" y="0" width="1440" height="40" fill="#0E2C4B"/>
  <text x="120" y="25" font-family="Arial, Helvetica, sans-serif" font-size="12" fill="#9FB6CB" font-weight="700" letter-spacing="1.2">CÂMARA MUNICIPAL DO RECIFE</text>
  <text x="1320" y="25" font-family="Arial, Helvetica, sans-serif" font-size="12" fill="#9FB6CB" text-anchor="end">Mapa do site</text>
  <text x="1218.4" y="25" font-family="Arial, Helvetica, sans-serif" font-size="12" fill="#9FB6CB" text-anchor="end">Alto contraste</text>
  <text x="1104.2" y="25" font-family="Arial, Helvetica, sans-serif" font-size="12" fill="#9FB6CB" text-anchor="end">Acessibilidade</text>
  <rect x="0" y="40" width="1440" height="88" fill="#FFFFFF"/>
  <line x1="0" y1="128" x2="1440" y2="128" stroke="#DBE3EC" stroke-width="1.5"/>
  <rect x="120" y="62" width="46" height="46" rx="8" fill="#0E2C4B"/>
  <g transform="translate(131,73) scale(1)">
  <path d="M3 4h18v13H3zM12 17v4M8 21h8M7 13V9M12 13V7M17 13v-2" fill="none" stroke="#B8862B" stroke-width="1.9" stroke-linecap="round" stroke-linejoin="round"/>
  </g>
  <text x="180" y="80" font-family="Arial, Helvetica, sans-serif" font-size="20" fill="#122231" font-weight="700">Escola do Legislativo</text>
  <text x="180" y="99" font-family="Arial, Helvetica, sans-serif" font-size="12.5" fill="#64778A">Câmara Municipal do Recife</text>
  <text x="430" y="90" font-family="Arial, Helvetica, sans-serif" font-size="14" fill="#2A3B4A">Home</text>
  <text x="487.4" y="90" font-family="Arial, Helvetica, sans-serif" font-size="14" fill="#2A3B4A">Cursos e Eventos</text>
  <text x="633" y="90" font-family="Arial, Helvetica, sans-serif" font-size="14" fill="#2A3B4A">A Escola</text>
  <text x="719.8" y="90" font-family="Arial, Helvetica, sans-serif" font-size="14" fill="#2A3B4A">Acervo</text>
  <text x="791.9" y="90" font-family="Arial, Helvetica, sans-serif" font-size="14" fill="#2A3B4A">Notícias</text>
  <text x="878.7" y="90" font-family="Arial, Helvetica, sans-serif" font-size="14" fill="#2A3B4A">Contato</text>
  <rect x="1280" y="68" width="40" height="40" rx="8" fill="#FFFFFF" stroke="#C2CEDA" stroke-width="1.3"/>
  <g transform="translate(1291,79) scale(0.75)">
  <path d="M11 4a7 7 0 1 0 0 14 7 7 0 0 0 0-14M16.5 16.5 21 21" fill="none" stroke="#2A3B4A" stroke-width="2.4" stroke-linecap="round" stroke-linejoin="round"/>
  </g>
  <rect x="1120" y="68" width="148" height="40" rx="6" fill="#1263A5" stroke="#0D4E85" stroke-width="1.5"/>
  <text x="1194" y="92.72" font-family="Arial, Helvetica, sans-serif" font-size="13.5" fill="#FFFFFF" font-weight="700" text-anchor="middle">Entrar / Cadastre-se</text>
  <rect x="0" y="128" width="1440" height="120" fill="#0E2C4B"/>
  <rect x="320" y="318" width="800" height="520" rx="14" fill="#FFFFFF" stroke="#DBE3EC" stroke-width="1.4"/>
  <rect x="320" y="318" width="800" height="8" rx="14" fill="#1B7A57"/>
  <rect x="320" y="322" width="800" height="4" fill="#1B7A57"/>
  <circle cx="720" cy="414" r="44" fill="#E3F3EC"/>
  <path d="M700 414 l14 15 L742 398" fill="none" stroke="#1B7A57" stroke-width="5" stroke-linecap="round" stroke-linejoin="round"/>
  <text x="720" y="503.8" font-family="Arial, Helvetica, sans-serif" font-size="28" fill="#122231" font-weight="700" text-anchor="middle">Cadastro criado com sucesso!</text>
  <text x="720" y="535.25" font-family="Arial, Helvetica, sans-serif" font-size="15" fill="#64778A" text-anchor="middle">Enviamos um e-mail de confirmação para maria.santos@email.com</text>
  <rect x="380" y="568" width="680" height="96" rx="10" fill="#E8F1F9" stroke="#A9CBE8" stroke-width="1.2"/>
  <g transform="translate(404,604) scale(0.83)">
  <path d="M4 12h16M14 6l6 6-6 6" fill="none" stroke="#0D4E85" stroke-width="2.28" stroke-linecap="round" stroke-linejoin="round"/>
  </g>
  <text x="436" y="606" font-family="Arial, Helvetica, sans-serif" font-size="15" fill="#0D4E85" font-weight="700">Você estava se inscrevendo em um curso</text>
  <text x="436" y="630" font-family="Arial, Helvetica, sans-serif" font-size="13.5" fill="#2A3B4A">Processo Legislativo Municipal · Turma B - Noite · 14 e 15/09/2026</text>
  <rect x="380" y="696" width="340" height="54" rx="6" fill="#1263A5" stroke="#0D4E85" stroke-width="1.5"/>
  <text x="550" y="728.42" font-family="Arial, Helvetica, sans-serif" font-size="15.5" fill="#FFFFFF" font-weight="700" text-anchor="middle">Continuar a inscrição no curso</text>
  <rect x="377" y="693" width="346" height="60" rx="9" fill="none" stroke="#B8862B" stroke-width="1.5"/>
  <rect x="736" y="696" width="200" height="54" rx="6" fill="#FFFFFF" stroke="#1263A5" stroke-width="1.5"/>
  <text x="836" y="728.25" font-family="Arial, Helvetica, sans-serif" font-size="15" fill="#1263A5" font-weight="700" text-anchor="middle">Ir para Área do Aluno</text>
  <rect x="952" y="696" width="108" height="54" rx="6" fill="#FFFFFF" stroke="#C2CEDA" stroke-width="1.5"/>
  <text x="1006" y="728.25" font-family="Arial, Helvetica, sans-serif" font-size="15" fill="#2A3B4A" font-weight="700" text-anchor="middle">Início</text>
  <text x="720" y="792.38" font-family="Arial, Helvetica, sans-serif" font-size="12.5" fill="#64778A" text-anchor="middle">Guarde seu CPF e sua senha: são eles que dão acesso ao portal.</text>
  <rect x="0" y="918" width="1440" height="330" fill="#0E2C4B"/>
  <rect x="0" y="918" width="1440" height="4" fill="#B8862B"/>
  <text x="120" y="980" font-family="Arial, Helvetica, sans-serif" font-size="15" fill="#FFFFFF" font-weight="700">Escola do Legislativo</text>
  <rect x="120" y="992" width="28" height="3" rx="2" fill="#B8862B"/>
  <text x="120" y="1024" font-family="Arial, Helvetica, sans-serif" font-size="13" fill="#B7C7D6">Rua Princesa Isabel, 410 - 1o Andar</text>
  <text x="120" y="1050" font-family="Arial, Helvetica, sans-serif" font-size="13" fill="#B7C7D6">Boa Vista - Recife/PE - CEP 50050-330</text>
  <text x="120" y="1076" font-family="Arial, Helvetica, sans-serif" font-size="13" fill="#B7C7D6">(81) 3355-4000 | ramal 4120</text>
  <text x="120" y="1102" font-family="Arial, Helvetica, sans-serif" font-size="13" fill="#B7C7D6">escoladolegislativo@recife.pe.leg.br</text>
  <text x="120" y="1128" font-family="Arial, Helvetica, sans-serif" font-size="13" fill="#B7C7D6">Atendimento: seg a sex, 8h as 17h</text>
  <text x="390" y="980" font-family="Arial, Helvetica, sans-serif" font-size="15" fill="#FFFFFF" font-weight="700">Institucional</text>
  <rect x="390" y="992" width="28" height="3" rx="2" fill="#B8862B"/>
  <text x="390" y="1024" font-family="Arial, Helvetica, sans-serif" font-size="13" fill="#B7C7D6">Quem Somos</text>
  <text x="390" y="1050" font-family="Arial, Helvetica, sans-serif" font-size="13" fill="#B7C7D6">História e composição</text>
  <text x="390" y="1076" font-family="Arial, Helvetica, sans-serif" font-size="13" fill="#B7C7D6">Legislação e Transparência</text>
  <text x="390" y="1102" font-family="Arial, Helvetica, sans-serif" font-size="13" fill="#B7C7D6">Instrumentos jurídicos</text>
  <text x="390" y="1128" font-family="Arial, Helvetica, sans-serif" font-size="13" fill="#B7C7D6">Escolas parceiras</text>
  <text x="660" y="980" font-family="Arial, Helvetica, sans-serif" font-size="15" fill="#FFFFFF" font-weight="700">Serviços</text>
  <rect x="660" y="992" width="28" height="3" rx="2" fill="#B8862B"/>
  <text x="660" y="1024" font-family="Arial, Helvetica, sans-serif" font-size="13" fill="#B7C7D6">Cursos e eventos</text>
  <text x="660" y="1050" font-family="Arial, Helvetica, sans-serif" font-size="13" fill="#B7C7D6">Área do Aluno</text>
  <text x="660" y="1076" font-family="Arial, Helvetica, sans-serif" font-size="13" fill="#B7C7D6">Validar certificado</text>
  <text x="660" y="1102" font-family="Arial, Helvetica, sans-serif" font-size="13" fill="#B7C7D6">Acervo / Biblioteca</text>
  <text x="660" y="1128" font-family="Arial, Helvetica, sans-serif" font-size="13" fill="#B7C7D6">Notícias</text>
  <text x="930" y="980" font-family="Arial, Helvetica, sans-serif" font-size="15" fill="#FFFFFF" font-weight="700">Escolas parceiras</text>
  <rect x="930" y="992" width="28" height="3" rx="2" fill="#B8862B"/>
  <text x="930" y="1024" font-family="Arial, Helvetica, sans-serif" font-size="13" fill="#B7C7D6">ALMG - Minas Gerais</text>
  <g transform="translate(1067.67,1012) scale(0.54)">
  <path d="M10 14a4 4 0 0 0 6 .5l3-3a4 4 0 0 0-5.7-5.7L11.6 7.5M14 10a4 4 0 0 0-6-.5l-3 3a4 4 0 0 0 5.7 5.7L12.4 16.5" fill="none" stroke="#7D93A8" stroke-width="3.14" stroke-linecap="round" stroke-linejoin="round"/>
  </g>
  <text x="930" y="1050" font-family="Arial, Helvetica, sans-serif" font-size="13" fill="#B7C7D6">ALEP - Paraná</text>
  <g transform="translate(1026.72,1038) scale(0.54)">
  <path d="M10 14a4 4 0 0 0 6 .5l3-3a4 4 0 0 0-5.7-5.7L11.6 7.5M14 10a4 4 0 0 0-6-.5l-3 3a4 4 0 0 0 5.7 5.7L12.4 16.5" fill="none" stroke="#7D93A8" stroke-width="3.14" stroke-linecap="round" stroke-linejoin="round"/>
  </g>
  <text x="930" y="1076" font-family="Arial, Helvetica, sans-serif" font-size="13" fill="#B7C7D6">Interlegis / ILB</text>
  <g transform="translate(1047.2,1064) scale(0.54)">
  <path d="M10 14a4 4 0 0 0 6 .5l3-3a4 4 0 0 0-5.7-5.7L11.6 7.5M14 10a4 4 0 0 0-6-.5l-3 3a4 4 0 0 0 5.7 5.7L12.4 16.5" fill="none" stroke="#7D93A8" stroke-width="3.14" stroke-linecap="round" stroke-linejoin="round"/>
  </g>
  <text x="930" y="1102" font-family="Arial, Helvetica, sans-serif" font-size="13" fill="#B7C7D6">ABEL - Associação Brasileira</text>
  <g transform="translate(1129.1,1090) scale(0.54)">
  <path d="M10 14a4 4 0 0 0 6 .5l3-3a4 4 0 0 0-5.7-5.7L11.6 7.5M14 10a4 4 0 0 0-6-.5l-3 3a4 4 0 0 0 5.7 5.7L12.4 16.5" fill="none" stroke="#7D93A8" stroke-width="3.14" stroke-linecap="round" stroke-linejoin="round"/>
  </g>
  <text x="930" y="1128" font-family="Arial, Helvetica, sans-serif" font-size="13" fill="#B7C7D6">Ver todas as parceiras</text>
  <g transform="translate(1088.15,1116) scale(0.54)">
  <path d="M10 14a4 4 0 0 0 6 .5l3-3a4 4 0 0 0-5.7-5.7L11.6 7.5M14 10a4 4 0 0 0-6-.5l-3 3a4 4 0 0 0 5.7 5.7L12.4 16.5" fill="none" stroke="#7D93A8" stroke-width="3.14" stroke-linecap="round" stroke-linejoin="round"/>
  </g>
  <line x1="120" y1="1182" x2="1320" y2="1182" stroke="#2A4A6B" stroke-width="1.2"/>
  <text x="120" y="1214" font-family="Arial, Helvetica, sans-serif" font-size="12.5" fill="#8FA6BA">© 2026 Câmara Municipal do Recife - Divisão de Informática</text>
  <text x="1320" y="1214" font-family="Arial, Helvetica, sans-serif" font-size="12.5" fill="#8FA6BA" text-anchor="end">Política de Privacidade  |  LGPD  |  Termos de uso</text>
  <g id="NOTA-ANALISE">
  <rect x="0" y="1248" width="1440" height="182" fill="#101E2B"/>
  <rect x="0" y="1248" width="1440" height="3" fill="#B8862B"/>
  <text x="120" y="1284" font-family="Arial, Helvetica, sans-serif" font-size="11" fill="#B8862B" font-weight="700" letter-spacing="1.6">NOTA DE ANÁLISE - NÃO FAZ PARTE DA INTERFACE</text>
  <text x="120" y="1288" font-family="Arial, Helvetica, sans-serif" font-size="11" fill="#2A3B4A"></text>
  <text x="120" y="1316" font-family="Arial, Helvetica, sans-serif" font-size="12.5" fill="#8FA6BA" font-weight="700">Requisitos atendidos nesta tela</text>
  <rect x="360" y="1303" width="132.4" height="22" rx="4" fill="#1D3448" stroke="#2F5171" stroke-width="1"/>
  <text x="426.2" y="1318.2" font-family="Arial, Helvetica, sans-serif" font-size="12" fill="#CFE0EE" font-weight="700" text-anchor="middle">RF 5 - Cenário A</text>
  <rect x="500.4" y="1303" width="49.6" height="22" rx="4" fill="#1D3448" stroke="#2F5171" stroke-width="1"/>
  <text x="525.2" y="1318.2" font-family="Arial, Helvetica, sans-serif" font-size="12" fill="#CFE0EE" font-weight="700" text-anchor="middle">RF 6</text>
  <rect x="558" y="1303" width="49.6" height="22" rx="4" fill="#1D3448" stroke="#2F5171" stroke-width="1"/>
  <text x="582.8" y="1318.2" font-family="Arial, Helvetica, sans-serif" font-size="12" fill="#CFE0EE" font-weight="700" text-anchor="middle">RF 7</text>
  <text x="120" y="1348" font-family="Arial, Helvetica, sans-serif" font-size="12.5" fill="#8FA6BA" font-weight="700">Observação</text>
  <text x="120" y="1368" font-family="Arial, Helvetica, sans-serif" font-size="13.5" fill="#9FB6CB">Após o cadastro/login originado do botão Inscrever-se, o sistema redireciona de volta para a confirmação da inscrição no curso específico; caso contrário, vai para a página</text>
  <text x="120" y="1388" font-family="Arial, Helvetica, sans-serif" font-size="13.5" fill="#9FB6CB">inicial da Área do Aluno.</text>
  </g>
</svg>
