<svg xmlns="http://www.w3.org/2000/svg" width="1440" height="1588" viewBox="0 0 1440 1588">
  <title>33-aluno-lista-espera-confirmada</title>
  <rect width="1440" height="1588" fill="#FFFFFF"/>
  <rect x="0" y="0" width="1440" height="40" fill="#0E2C4B"/>
  <text x="120" y="25" font-family="Arial, Helvetica, sans-serif" font-size="12" fill="#9FB6CB" font-weight="700" letter-spacing="1.2">CÂMARA MUNICIPAL DO RECIFE</text>
  <text x="1320" y="25" font-family="Arial, Helvetica, sans-serif" font-size="12" fill="#9FB6CB" text-anchor="end">Mapa do site</text>
  <text x="1218.4" y="25" font-family="Arial, Helvetica, sans-serif" font-size="12" fill="#9FB6CB" text-anchor="end">Alto contraste</text>
  <text x="1104.2" y="25" font-family="Arial, Helvetica, sans-serif" font-size="12" fill="#9FB6CB" text-anchor="end">Acessibilidade</text>
  <rect x="0" y="40" width="1440" height="88" fill="#FFFFFF"/>
  <line x1="0" y1="128" x2="1440" y2="128" stroke="#DBE3EC" stroke-width="1.5"/>
  <rect x="120" y="62" width="46" height="46" rx="8" fill="#0E2C4B"/>
  <g transform="translate(131,73) scale(1)">
  <path d="M3 4h18v13H3zM12 17v4M8 21h8M7 13V9M12 13V7M17 13v-2" fill="none" stroke="#B8862B" stroke-width="1.9" stroke-linecap="round" stroke-linejoin="round"/>
  </g>
  <text x="180" y="80" font-family="Arial, Helvetica, sans-serif" font-size="20" fill="#122231" font-weight="700">Escola do Legislativo</text>
  <text x="180" y="99" font-family="Arial, Helvetica, sans-serif" font-size="12.5" fill="#64778A">Câmara Municipal do Recife</text>
  <text x="430" y="90" font-family="Arial, Helvetica, sans-serif" font-size="14" fill="#2A3B4A">Home</text>
  <text x="487.4" y="90" font-family="Arial, Helvetica, sans-serif" font-size="14" fill="#2A3B4A">Cursos e Eventos</text>
  <text x="633" y="90" font-family="Arial, Helvetica, sans-serif" font-size="14" fill="#2A3B4A">A Escola</text>
  <text x="719.8" y="90" font-family="Arial, Helvetica, sans-serif" font-size="14" fill="#2A3B4A">Acervo</text>
  <text x="791.9" y="90" font-family="Arial, Helvetica, sans-serif" font-size="14" fill="#2A3B4A">Notícias</text>
  <text x="878.7" y="90" font-family="Arial, Helvetica, sans-serif" font-size="14" fill="#2A3B4A">Contato</text>
  <rect x="1280" y="68" width="40" height="40" rx="8" fill="#FFFFFF" stroke="#C2CEDA" stroke-width="1.3"/>
  <g transform="translate(1291,79) scale(0.75)">
  <path d="M11 4a7 7 0 1 0 0 14 7 7 0 0 0 0-14M16.5 16.5 21 21" fill="none" stroke="#2A3B4A" stroke-width="2.4" stroke-linecap="round" stroke-linejoin="round"/>
  </g>
  <rect x="1074" y="68" width="196" height="40" rx="8" fill="#F5F8FB" stroke="#C2CEDA" stroke-width="1.3"/>
  <circle cx="1098" cy="88" r="16" fill="#1E4D75"/>
  <text x="1098" y="92.03" font-family="Arial, Helvetica, sans-serif" font-size="11.52" fill="#FFFFFF" font-weight="700" text-anchor="middle">MS</text>
  <text x="1122" y="84" font-family="Arial, Helvetica, sans-serif" font-size="13" fill="#122231" font-weight="700">Maria Silva</text>
  <text x="1122" y="100" font-family="Arial, Helvetica, sans-serif" font-size="11.5" fill="#64778A">Área do Aluno</text>
  <g transform="translate(1246,79) scale(0.67)">
  <path d="M6 9.5 12 15.5 18 9.5" fill="none" stroke="#64778A" stroke-width="2.7" stroke-linecap="round" stroke-linejoin="round"/>
  </g>
  <rect x="0" y="128" width="1440" height="110" fill="#0E2C4B"/>
  <rect x="270" y="294" width="900" height="622" rx="14" fill="#FFFFFF" stroke="#DBE3EC" stroke-width="1.4"/>
  <rect x="270" y="294" width="900" height="8" rx="14" fill="#B0700A"/>
  <rect x="270" y="298" width="900" height="4" fill="#B0700A"/>
  <circle cx="720" cy="386" r="42" fill="#FCF0DA"/>
  <g transform="translate(700,366) scale(1.67)">
  <path d="M12 3a9 9 0 1 0 0 18 9 9 0 0 0 0-18M12 7v5l3.5 2" fill="none" stroke="#B0700A" stroke-width="1.32" stroke-linecap="round" stroke-linejoin="round"/>
  </g>
  <text x="720" y="472.5" font-family="Arial, Helvetica, sans-serif" font-size="30" fill="#122231" font-weight="700" text-anchor="middle">Você entrou na lista de espera</text>
  <text x="720" y="501.25" font-family="Arial, Helvetica, sans-serif" font-size="15" fill="#64778A" text-anchor="middle">Processo Legislativo Municipal · Turma C - Tarde</text>
  <rect x="318" y="528" width="804" height="128" rx="10" fill="#FCF0DA" stroke="#EBCE95" stroke-width="1.2"/>
  <text x="430" y="596.7" font-family="Arial, Helvetica, sans-serif" font-size="42" fill="#B0700A" font-weight="700" text-anchor="middle">4ª</text>
  <text x="430" y="620.38" font-family="Arial, Helvetica, sans-serif" font-size="12.5" fill="#2A3B4A" text-anchor="middle">sua posição na fila</text>
  <line x1="542" y1="552" x2="542" y2="632" stroke="#EBCE95" stroke-width="1.4"/>
  <text x="576" y="568" font-family="Arial, Helvetica, sans-serif" font-size="15" fill="#B0700A" font-weight="700">Como funciona a fila</text>
  <text x="576" y="594" font-family="Arial, Helvetica, sans-serif" font-size="13" fill="#2A3B4A">A ordem de chegada é respeitada. Quando alguém cancelar a inscrição, a</text>
  <text x="576" y="613" font-family="Arial, Helvetica, sans-serif" font-size="13" fill="#2A3B4A">vaga é oferecida ao próximo da fila.</text>
  <rect x="318" y="680" width="804" height="106" rx="10" fill="#F7FAFC" stroke="#DBE3EC" stroke-width="1.2"/>
  <text x="346" y="712" font-family="Arial, Helvetica, sans-serif" font-size="12" fill="#64778A" font-weight="700">Situação da sua inscrição</text>
  <rect x="346" y="724" width="151.07" height="30" rx="15" fill="#FCF0DA" stroke="#B0700A" stroke-width="1"/>
  <text x="358" y="743.68" font-family="Arial, Helvetica, sans-serif" font-size="13" fill="#B0700A" font-weight="700">Em fila de espera</text>
  <text x="610" y="712" font-family="Arial, Helvetica, sans-serif" font-size="12" fill="#64778A" font-weight="700">Protocolo</text>
  <text x="610" y="740" font-family="Arial, Helvetica, sans-serif" font-size="15" fill="#122231" font-weight="700">FIL-2026-000317</text>
  <text x="870" y="712" font-family="Arial, Helvetica, sans-serif" font-size="12" fill="#64778A" font-weight="700">Entrada na fila</text>
  <text x="870" y="740" font-family="Arial, Helvetica, sans-serif" font-size="15" fill="#122231" font-weight="700">19/08/2026 às 14h07</text>
  <rect x="318" y="810" width="260" height="52" rx="6" fill="#1263A5" stroke="#0D4E85" stroke-width="1.5"/>
  <text x="448" y="841.25" font-family="Arial, Helvetica, sans-serif" font-size="15" fill="#FFFFFF" font-weight="700" text-anchor="middle">Ir para Meus Cursos</text>
  <rect x="592" y="810" width="240" height="52" rx="6" fill="#FFFFFF" stroke="#1263A5" stroke-width="1.5"/>
  <text x="712" y="840.9" font-family="Arial, Helvetica, sans-serif" font-size="14" fill="#1263A5" font-weight="700" text-anchor="middle">Ver outras turmas</text>
  <text x="720" y="884.38" font-family="Arial, Helvetica, sans-serif" font-size="12.5" fill="#64778A" text-anchor="middle">Você receberá um e-mail assim que uma vaga for liberada.</text>
  <rect x="0" y="996" width="1440" height="330" fill="#0E2C4B"/>
  <rect x="0" y="996" width="1440" height="4" fill="#B8862B"/>
  <text x="120" y="1058" font-family="Arial, Helvetica, sans-serif" font-size="15" fill="#FFFFFF" font-weight="700">Escola do Legislativo</text>
  <rect x="120" y="1070" width="28" height="3" rx="2" fill="#B8862B"/>
  <text x="120" y="1102" font-family="Arial, Helvetica, sans-serif" font-size="13" fill="#B7C7D6">Rua Princesa Isabel, 410 - 1o Andar</text>
  <text x="120" y="1128" font-family="Arial, Helvetica, sans-serif" font-size="13" fill="#B7C7D6">Boa Vista - Recife/PE - CEP 50050-330</text>
  <text x="120" y="1154" font-family="Arial, Helvetica, sans-serif" font-size="13" fill="#B7C7D6">(81) 3355-4000 | ramal 4120</text>
  <text x="120" y="1180" font-family="Arial, Helvetica, sans-serif" font-size="13" fill="#B7C7D6">escoladolegislativo@recife.pe.leg.br</text>
  <text x="120" y="1206" font-family="Arial, Helvetica, sans-serif" font-size="13" fill="#B7C7D6">Atendimento: seg a sex, 8h as 17h</text>
  <text x="390" y="1058" font-family="Arial, Helvetica, sans-serif" font-size="15" fill="#FFFFFF" font-weight="700">Institucional</text>
  <rect x="390" y="1070" width="28" height="3" rx="2" fill="#B8862B"/>
  <text x="390" y="1102" font-family="Arial, Helvetica, sans-serif" font-size="13" fill="#B7C7D6">Quem Somos</text>
  <text x="390" y="1128" font-family="Arial, Helvetica, sans-serif" font-size="13" fill="#B7C7D6">História e composição</text>
  <text x="390" y="1154" font-family="Arial, Helvetica, sans-serif" font-size="13" fill="#B7C7D6">Legislação e Transparência</text>
  <text x="390" y="1180" font-family="Arial, Helvetica, sans-serif" font-size="13" fill="#B7C7D6">Instrumentos jurídicos</text>
  <text x="390" y="1206" font-family="Arial, Helvetica, sans-serif" font-size="13" fill="#B7C7D6">Escolas parceiras</text>
  <text x="660" y="1058" font-family="Arial, Helvetica, sans-serif" font-size="15" fill="#FFFFFF" font-weight="700">Serviços</text>
  <rect x="660" y="1070" width="28" height="3" rx="2" fill="#B8862B"/>
  <text x="660" y="1102" font-family="Arial, Helvetica, sans-serif" font-size="13" fill="#B7C7D6">Cursos e eventos</text>
  <text x="660" y="1128" font-family="Arial, Helvetica, sans-serif" font-size="13" fill="#B7C7D6">Área do Aluno</text>
  <text x="660" y="1154" font-family="Arial, Helvetica, sans-serif" font-size="13" fill="#B7C7D6">Validar certificado</text>
  <text x="660" y="1180" font-family="Arial, Helvetica, sans-serif" font-size="13" fill="#B7C7D6">Acervo / Biblioteca</text>
  <text x="660" y="1206" font-family="Arial, Helvetica, sans-serif" font-size="13" fill="#B7C7D6">Notícias</text>
  <text x="930" y="1058" font-family="Arial, Helvetica, sans-serif" font-size="15" fill="#FFFFFF" font-weight="700">Escolas parceiras</text>
  <rect x="930" y="1070" width="28" height="3" rx="2" fill="#B8862B"/>
  <text x="930" y="1102" font-family="Arial, Helvetica, sans-serif" font-size="13" fill="#B7C7D6">ALMG - Minas Gerais</text>
  <g transform="translate(1067.67,1090) scale(0.54)">
  <path d="M10 14a4 4 0 0 0 6 .5l3-3a4 4 0 0 0-5.7-5.7L11.6 7.5M14 10a4 4 0 0 0-6-.5l-3 3a4 4 0 0 0 5.7 5.7L12.4 16.5" fill="none" stroke="#7D93A8" stroke-width="3.14" stroke-linecap="round" stroke-linejoin="round"/>
  </g>
  <text x="930" y="1128" font-family="Arial, Helvetica, sans-serif" font-size="13" fill="#B7C7D6">ALEP - Paraná</text>
  <g transform="translate(1026.72,1116) scale(0.54)">
  <path d="M10 14a4 4 0 0 0 6 .5l3-3a4 4 0 0 0-5.7-5.7L11.6 7.5M14 10a4 4 0 0 0-6-.5l-3 3a4 4 0 0 0 5.7 5.7L12.4 16.5" fill="none" stroke="#7D93A8" stroke-width="3.14" stroke-linecap="round" stroke-linejoin="round"/>
  </g>
  <text x="930" y="1154" font-family="Arial, Helvetica, sans-serif" font-size="13" fill="#B7C7D6">Interlegis / ILB</text>
  <g transform="translate(1047.2,1142) scale(0.54)">
  <path d="M10 14a4 4 0 0 0 6 .5l3-3a4 4 0 0 0-5.7-5.7L11.6 7.5M14 10a4 4 0 0 0-6-.5l-3 3a4 4 0 0 0 5.7 5.7L12.4 16.5" fill="none" stroke="#7D93A8" stroke-width="3.14" stroke-linecap="round" stroke-linejoin="round"/>
  </g>
  <text x="930" y="1180" font-family="Arial, Helvetica, sans-serif" font-size="13" fill="#B7C7D6">ABEL - Associação Brasileira</text>
  <g transform="translate(1129.1,1168) scale(0.54)">
  <path d="M10 14a4 4 0 0 0 6 .5l3-3a4 4 0 0 0-5.7-5.7L11.6 7.5M14 10a4 4 0 0 0-6-.5l-3 3a4 4 0 0 0 5.7 5.7L12.4 16.5" fill="none" stroke="#7D93A8" stroke-width="3.14" stroke-linecap="round" stroke-linejoin="round"/>
  </g>
  <text x="930" y="1206" font-family="Arial, Helvetica, sans-serif" font-size="13" fill="#B7C7D6">Ver todas as parceiras</text>
  <g transform="translate(1088.15,1194) scale(0.54)">
  <path d="M10 14a4 4 0 0 0 6 .5l3-3a4 4 0 0 0-5.7-5.7L11.6 7.5M14 10a4 4 0 0 0-6-.5l-3 3a4 4 0 0 0 5.7 5.7L12.4 16.5" fill="none" stroke="#7D93A8" stroke-width="3.14" stroke-linecap="round" stroke-linejoin="round"/>
  </g>
  <line x1="120" y1="1260" x2="1320" y2="1260" stroke="#2A4A6B" stroke-width="1.2"/>
  <text x="120" y="1292" font-family="Arial, Helvetica, sans-serif" font-size="12.5" fill="#8FA6BA">© 2026 Câmara Municipal do Recife - Divisão de Informática</text>
  <text x="1320" y="1292" font-family="Arial, Helvetica, sans-serif" font-size="12.5" fill="#8FA6BA" text-anchor="end">Política de Privacidade  |  LGPD  |  Termos de uso</text>
  <g id="NOTA-ANALISE">
  <rect x="0" y="1326" width="1440" height="262" fill="#101E2B"/>
  <rect x="0" y="1326" width="1440" height="3" fill="#B8862B"/>
  <text x="120" y="1362" font-family="Arial, Helvetica, sans-serif" font-size="11" fill="#B8862B" font-weight="700" letter-spacing="1.6">NOTA DE ANÁLISE - NÃO FAZ PARTE DA INTERFACE</text>
  <text x="120" y="1366" font-family="Arial, Helvetica, sans-serif" font-size="11" fill="#2A3B4A"></text>
  <text x="120" y="1394" font-family="Arial, Helvetica, sans-serif" font-size="12.5" fill="#8FA6BA" font-weight="700">Requisitos atendidos nesta tela</text>
  <rect x="360" y="1381" width="49.6" height="22" rx="4" fill="#1D3448" stroke="#2F5171" stroke-width="1"/>
  <text x="384.8" y="1396.2" font-family="Arial, Helvetica, sans-serif" font-size="12" fill="#CFE0EE" font-weight="700" text-anchor="middle">RF 8</text>
  <text x="120" y="1426" font-family="Arial, Helvetica, sans-serif" font-size="12.5" fill="#E9B44C" font-weight="700">Decisões pendentes de reunião</text>
  <circle cx="126" cy="1444" r="4.5" fill="#D9534F"/>
  <text x="142" y="1448" font-family="Arial, Helvetica, sans-serif" font-size="13.5" fill="#C7D6E3">RF 10 - Quando surgir vaga, o sistema avisa automaticamente o próximo da fila por e-mail dando 24h para assumir (Opção 1) ou o contato é feito manualmente pela</text>
  <text x="142" y="1467" font-family="Arial, Helvetica, sans-serif" font-size="13.5" fill="#C7D6E3">equipe da Escola (Opção 2)? O texto desta tela depende dessa definição.</text>
  <text x="120" y="1508" font-family="Arial, Helvetica, sans-serif" font-size="12.5" fill="#8FA6BA" font-weight="700">Observação</text>
  <text x="120" y="1528" font-family="Arial, Helvetica, sans-serif" font-size="13.5" fill="#9FB6CB">RF 8: mesmo fluxo da inscrição, porém com status 'Em fila de espera', respeitando a ordem de cada aluno na fila.</text>
  </g>
</svg>
